#tb 0: 1/1000
0,          0,          0,        0,   152064, 20cf714300c5e28ffb77bf9c682129bc
0,         33,         33,        0,   152064, 2f271e4de29f87d6b90511fbafdf9fbb
0,         66,         66,        0,   152064, 2f271e4de29f87d6b90511fbafdf9fbb
0,        100,        100,        0,   152064, a88532a043f5f2c6bce729a8e20ee5af
0,        133,        133,        0,   152064, 8d7b5482ed8072a7c95d722783773436
0,        166,        166,        0,   152064, 04872d8619b163b5e0c20123ccddf7dc
0,        200,        200,        0,   152064, ed6d9677782aa6e87b6576541391557f
0,        233,        233,        0,   152064, 689f71108e9bf024cd9ccf48800dcdc7
0,        266,        266,        0,   152064, f7c555792884499bb62a8e739b201739
0,        300,        300,        0,   152064, 7fed82c38ce428a178c56f6131eff5ec
0,        333,        333,        0,   152064, fb638e587ade05baa027bb63edc7ec7c
0,        367,        367,        0,   152064, 319295f5aa44661a80570e844050156a
0,        400,        400,        0,   152064, de2d8635966a1cd57290eac449a5fb4b
0,        433,        433,        0,   152064, 9ac3d711a00aac6b17004bb6451e4cab
0,        467,        467,        0,   152064, d12eced084e72b5230493e2dc2de0f0a
0,        500,        500,        0,   152064, 197761d11407fed723a63b8e28cb8e19
0,        533,        533,        0,   152064, 28d8e807bc142b74f1eaf30dbbf1b7bd
0,        567,        567,        0,   152064, abe88f1f7490d13ba3def9511beaceec
0,        600,        600,        0,   152064, 7d297b9c989ebc0408fd41b14900242a
0,        633,        633,        0,   152064, d5e7adfa2b207d860feff5c894585fd1
0,        667,        667,        0,   152064, aea3e9de9de237f8379785f3467dc9c9
0,        700,        700,        0,   152064, 211967cd949c1d83a8cc4c8267aa6034
0,        734,        734,        0,   152064, 3f49bf8e0434114c15b867be2d53d283
0,        767,        767,        0,   152064, 8d5e629c0e941ca6f049ed2bb59d09a8
0,        800,        800,        0,   152064, d359620957877534bc94cd137dc652fe
0,        834,        834,        0,   152064, 83610fc1969fdfa267e7e462a83ea40c
0,        867,        867,        0,   152064, b2d20dcc3f77a238ce7210991eebe1a7
0,        900,        900,        0,   152064, a42ad37808f30e1d968882bf42e9c641
0,        934,        934,        0,   152064, 55084cded938266a2c3c658dcc162781
0,        967,        967,        0,   152064, e392a3a7d33e10e95fc9cdf0a2080eac
0,       1001,       1001,        0,   152064, 73977c4827463c17e63c0769bb90722f
0,       1034,       1034,        0,   152064, cb5dd87344af7d6fd4ed0e06cb90d9c2
0,       1067,       1067,        0,   152064, 533338860124e392cef2039468c22f75
0,       1101,       1101,        0,   152064, da30f077490042367502a6fe11a46e0f
0,       1134,       1134,        0,   152064, 860ab1bfbd3fe6a27bee5ef8c4e0b600
0,       1167,       1167,        0,   152064, 339ec3863eaed689d46289ffe47bc45d
0,       1201,       1201,        0,   152064, ffa6c990577093106796ed0dee56c483
0,       1234,       1234,        0,   152064, 3fcdc2bc064c79f35ea81a715ff089d0
0,       1267,       1267,        0,   152064, adaef9ec97e23a542db22bcd23c740bd
0,       1301,       1301,        0,   152064, ddcff4bd2c9579181182eb49add0ce3c
0,       1334,       1334,        0,   152064, b3b039c84cffb9272c8ddf9086748696
0,       1368,       1368,        0,   152064, 70939a961ec1e4697031b79e7ebb7919
0,       1401,       1401,        0,   152064, 6b3ff2e003749c6ffeb2d71edecf884c
0,       1434,       1434,        0,   152064, 5e4efc96971f81218c472482b5a79374
0,       1468,       1468,        0,   152064, 279132c87d81a5747824b06423bf6785
0,       1501,       1501,        0,   152064, 1da48caa08007523aab41a56e21dd99b
0,       1534,       1534,        0,   152064, 36ecffb2bfcb587d2556fddcbbd3448b
0,       1568,       1568,        0,   152064, 7823e3c86cd5a05c2959c7ef4d1cfa89
0,       1601,       1601,        0,   152064, b53f78afbad1a43f7aea58814eacd824
0,       1634,       1634,        0,   152064, b9b127b4bc54123bec19b2f4a3fa157c
